<svg id="Capa_1" enable-background="new 0 0 512 512" height="512" viewBox="0 0 512 512" width="512" xmlns="http://www.w3.org/2000/svg"><g><path d="m266.656 408.269-10.656-10.756-10.656 10.756c-.337.341-8.354 8.458-16.441 18.855-12.566 16.154-18.419 28.66-18.419 39.358-.001 25.099 20.418 45.518 45.516 45.518s45.517-20.419 45.517-45.517c0-10.698-5.853-23.205-18.419-39.358-8.088-10.397-16.105-18.515-16.442-18.856zm-10.656 73.731c-8.556 0-15.517-6.961-15.517-15.498.15-4.191 6.754-14.649 15.517-25.285 8.758 10.63 15.358 21.082 15.517 25.278-.007 8.55-6.965 15.505-15.517 15.505z"/><path d="m125.656 408.269-10.656-10.756-10.656 10.756c-.337.341-8.354 8.458-16.441 18.855-12.566 16.154-18.419 28.66-18.419 39.358-.001 25.099 20.418 45.518 45.516 45.518s45.517-20.419 45.517-45.517c0-10.698-5.853-23.205-18.419-39.358-8.088-10.397-16.105-18.515-16.442-18.856zm-10.656 73.731c-8.556 0-15.517-6.961-15.517-15.498.15-4.191 6.754-14.649 15.517-25.285 8.758 10.63 15.358 21.082 15.517 25.278-.007 8.55-6.965 15.505-15.517 15.505z"/><path d="m407.656 408.269-10.656-10.756-10.656 10.756c-.337.341-8.354 8.458-16.441 18.855-12.566 16.154-18.419 28.66-18.419 39.358-.001 25.099 20.418 45.518 45.516 45.518s45.517-20.419 45.517-45.517c0-10.698-5.853-23.205-18.419-39.358-8.088-10.397-16.105-18.515-16.442-18.856zm-10.656 73.731c-8.556 0-15.517-6.961-15.517-15.498.15-4.191 6.754-14.649 15.517-25.285 8.758 10.63 15.358 21.082 15.517 25.278-.007 8.55-6.965 15.505-15.517 15.505z"/><path d="m476 96.934h-28.892v-11.608c0-26.684-21.708-48.392-48.392-48.392h-127.716v-36.934h-30v36.934h-127.717c-26.684 0-48.392 21.708-48.392 48.392v11.608h-28.891v30h28.892v240.41h382.217v-240.41h28.891zm-381.108-11.608c0-10.142 8.25-18.392 18.392-18.392h285.434c10.142 0 18.392 8.25 18.392 18.392v11.608h-322.218zm322.216 252.018h-322.216v-210.41h322.217v210.41z"/></g></svg>